<svg xmlns="http://www.w3.org/2000/svg" viewBox="0 0 100 100"><defs><style>.cls-1{fill:#069;}.cls-2{fill:#fff;}</style></defs><g id="Layer_2" data-name="Layer 2"><g id="Layer_1-2" data-name="Layer 1"><path class="cls-1" d="M0,7.16A7.28,7.28,0,0,1,7.39,0H92.61A7.28,7.28,0,0,1,100,7.16V92.84A7.28,7.28,0,0,1,92.61,100H7.39A7.28,7.28,0,0,1,0,92.84V7.16Z"/><path class="cls-2" d="M30.31,83.92V38.48H15.21V83.92h15.1ZM22.76,32.28c5.27,0,8.55-3.49,8.55-7.85S28,16.58,22.86,16.58,14.32,20,14.32,24.43s3.28,7.85,8.35,7.85ZM38.67,83.92H53.78V58.55a10.26,10.26,0,0,1,.49-3.68A8.27,8.27,0,0,1,62,49.34c5.47,0,7.65,4.17,7.65,10.28v24.3H84.78V57.87c0-14-7.45-20.45-17.39-20.45-8.15,0-11.72,4.55-13.71,7.65h.1V38.48H38.67c.2,4.27,0,45.45,0,45.45Z"/></g></g></svg>