<svg xmlns="http://www.w3.org/2000/svg" viewBox="0 0 192.28 173.25"><defs><style>.cls-1{fill:#fff;}.cls-2{fill:#ff2d20;}</style></defs><g id="Layer_2" data-name="Layer 2"><g id="Layer_1-2" data-name="Layer 1"><ellipse class="cls-1" cx="96.21" cy="96.38" rx="33.74" ry="70.93"/><path class="cls-2" d="M93.31,170.88a96,96,0,0,1,0-149l2.9-2.37,2.91,2.37a96,96,0,0,1,0,149l-2.91,2.37ZM67.07,96.38a86.56,86.56,0,0,0,29.14,64.9,86.84,86.84,0,0,0,0-129.8A86.56,86.56,0,0,0,67.07,96.38Z"/><path class="cls-1" d="M129.22,86.86A91,91,0,0,1,96,93.2a91.51,91.51,0,0,1-91-82.27,91.34,91.34,0,0,1,124.3,75.93Z"/><path class="cls-2" d="M.35,11.39,0,7.92,3.25,6.65A95.93,95.93,0,0,1,133.8,86.41l.35,3.47-3.25,1.27A95.63,95.63,0,0,1,96,97.79,95.73,95.73,0,0,1,.35,11.39ZM38.2,9.19A86.16,86.16,0,0,0,9.92,14,86.55,86.55,0,0,0,96,88.6a86.2,86.2,0,0,0,28.28-4.79A86.58,86.58,0,0,0,38.2,9.19Z"/><path class="cls-1" d="M63.06,87a91.24,91.24,0,0,0,33.27,6.33,91.5,91.5,0,0,0,91-82.27A91.34,91.34,0,0,0,63.06,87Z"/><path class="cls-2" d="M61.38,91.3,58.13,90l.35-3.47A95.93,95.93,0,0,1,189,6.8l3.25,1.27-.35,3.47A95.73,95.73,0,0,1,96.33,98,95.64,95.64,0,0,1,61.38,91.3ZM154.09,9.35A86.57,86.57,0,0,0,68.05,84a86.2,86.2,0,0,0,28.28,4.79,86.55,86.55,0,0,0,86-74.61A86.14,86.14,0,0,0,154.09,9.35Z"/></g></g></svg>