<svg width="142" height="142" viewBox="0 0 142 142" fill="none" xmlns="http://www.w3.org/2000/svg">
<path d="M100.496 71.5001C100.379 78.3985 97.8471 85.044 93.3322 90.275C88.7084 95.6323 82.3128 99.1488 75.3121 100.183C68.3114 101.218 61.1721 99.701 55.1965 95.9099C49.2209 92.1188 44.8072 86.3059 42.7606 79.5316C40.714 72.7573 41.1708 65.4729 44.0477 59.0074C46.9247 52.5418 52.03 47.3259 58.4324 44.3111C64.8348 41.2962 72.1076 40.6834 78.9243 42.5843C85.5802 44.4404 91.3681 48.5725 95.285 54.2522L93.8711 55.1923C90.1799 49.8516 84.7319 45.9663 78.4682 44.2195C72.0439 42.428 65.1896 43.0055 59.1556 45.8469C53.1216 48.6883 48.3101 53.604 45.5987 59.6975C42.8874 65.791 42.4568 72.6561 44.3857 79.0406C46.3145 85.4251 50.4742 90.9035 56.1059 94.4764C61.7376 98.0494 68.4661 99.4788 75.0639 98.5039C81.6618 97.529 87.6893 94.2148 92.0471 89.1658C96.2959 84.2431 98.6813 77.9912 98.7979 71.5001H100.496ZM58.158 111.513C48.2383 108.369 39.8226 101.697 34.4984 92.769L35.9919 91.902C41.1003 100.458 49.1695 106.853 58.6798 109.867C68.3491 112.932 78.8136 112.283 88.0299 108.047C97.2461 103.81 104.552 96.2901 108.522 86.9557C112.491 77.6212 112.839 67.1423 109.496 57.5653C106.154 47.9884 99.3621 40.0011 90.4467 35.1632C81.5314 30.3253 71.1328 28.9843 61.2818 31.402C51.4307 33.8196 42.8345 39.8224 37.1719 48.238C31.6023 56.5153 29.264 66.5421 30.5885 76.4188L28.8798 76.6693C27.4931 66.3675 29.9298 55.9077 35.7392 47.274C41.6417 38.502 50.6019 32.245 60.8702 29.725C71.1385 27.2049 81.9774 28.6027 91.2703 33.6455C100.563 38.6883 107.643 47.0138 111.127 56.9964C114.61 66.9789 114.248 77.9016 110.111 87.6314C105.973 97.3612 98.3577 105.199 88.7511 109.615C79.1445 114.032 68.2368 114.708 58.158 111.513ZM22.1342 43.2734C28.9768 31.5487 39.8422 22.7139 52.7031 18.4033L53.265 20.1307C40.828 24.3034 30.3209 32.8493 23.703 44.189C17.001 55.6728 14.7555 69.2199 17.3939 82.2518C20.0323 95.2838 27.3704 106.891 38.0115 114.863C48.6525 122.836 61.8536 126.617 75.1019 125.488C88.3502 124.359 100.721 118.397 109.859 108.739C118.997 99.0805 124.265 86.3991 124.66 73.1086C125.054 59.8182 120.548 46.8465 112 36.6627C103.558 26.6067 91.756 19.9623 78.7923 17.9548L79.0537 16.1572C92.4586 18.2289 104.663 25.0974 113.391 35.4949C122.226 46.02 126.883 59.4265 126.475 73.1626C126.067 86.8986 120.623 100.005 111.178 109.987C101.734 119.97 88.9486 126.131 75.2561 127.298C61.5637 128.465 47.9201 124.557 36.9223 116.317C25.9246 108.077 18.3405 96.0811 15.6136 82.6123C12.8867 69.1434 15.2075 55.1422 22.1342 43.2734ZM136.709 45.4554C142.956 61.5243 143.096 79.3194 137.115 95.4765L135.457 94.8495C141.284 79.1017 141.146 61.7586 135.058 46.0975C128.909 30.281 117.126 17.2985 101.978 9.64963C86.8304 2.00077 69.3882 0.226438 53.0103 4.66827C36.6324 9.1101 22.4767 19.454 13.269 33.7083C4.06136 47.9626 0.452687 65.1194 3.13786 81.8752C5.82304 98.631 14.6122 113.801 27.813 124.464C41.0138 135.128 57.6929 140.53 74.6387 139.632C91.418 138.742 107.284 131.737 119.243 119.95L120.496 121.203C108.228 133.299 91.9487 140.488 74.7325 141.401C57.3498 142.323 40.2407 136.781 26.6995 125.843C13.1584 114.905 4.14261 99.3434 1.38821 82.1556C-1.3662 64.9678 2.33552 47.3687 11.7806 32.7469C21.2257 18.125 35.7463 7.51442 52.5465 2.95807C69.3467 -1.59828 87.2386 0.221799 102.777 8.06786C118.316 15.9139 130.402 29.2312 136.709 45.4554Z" fill="#FF2D20" stroke="#FF2D20"/>
</svg>
