<svg xmlns="http://www.w3.org/2000/svg" viewBox="0 0 150 150"><defs><style>.cls-1{fill:#fff;}.cls-2{fill:#ff2d20;}</style></defs><g id="Layer_2" data-name="Layer 2"><g id="Layer_1-2" data-name="Layer 1"><ellipse class="cls-1" cx="74.27" cy="74.82" rx="70.12" ry="69.1"/><path class="cls-1" d="M90.82,31.59A62.31,62.31,0,0,1,145,63.26a.93.93,0,0,0,1.74-.35,59.33,59.33,0,0,0,.34-6.28,56.3,56.3,0,1,0-112.59,0,59.33,59.33,0,0,0,.34,6.28.93.93,0,0,0,1.74.35A62.32,62.32,0,0,1,90.82,31.59Z"/><path class="cls-2" d="M35.8,64.32a1.22,1.22,0,0,1-.32,0A1.47,1.47,0,0,1,34.29,63a56.88,56.88,0,1,1,113.05,0,1.47,1.47,0,0,1-1.19,1.3,1.48,1.48,0,0,1-1.62-.73,61.94,61.94,0,0,0-107.42,0A1.49,1.49,0,0,1,35.8,64.32Zm55-63.17A55.69,55.69,0,0,0,35.1,56.7a54.85,54.85,0,0,0,.34,6.15.34.34,0,0,0,.27.31A.36.36,0,0,0,36.1,63a63.08,63.08,0,0,1,109.43,0,.37.37,0,0,0,.39.18.34.34,0,0,0,.27-.31,54.85,54.85,0,0,0,.35-6.15A55.7,55.7,0,0,0,90.82,1.15Z"/><path class="cls-1" d="M118,91A62.81,62.81,0,0,1,86.54,145.5a.94.94,0,0,0,.35,1.75A56.61,56.61,0,1,0,93.13,34.34a58.43,58.43,0,0,0-6.24.34.94.94,0,0,0-.35,1.75A62.84,62.84,0,0,1,118,91Z"/><path class="cls-2" d="M93.13,148.18a57.87,57.87,0,0,1-6.31-.35,1.53,1.53,0,0,1-.57-2.84,62.38,62.38,0,0,0,0-108,1.51,1.51,0,0,1-.73-1.64,1.48,1.48,0,0,1,1.3-1.19,55.47,55.47,0,0,1,6.31-.35A57.1,57.1,0,0,1,150,91C150,122.51,124.49,148.18,93.13,148.18Zm0-113.26a55.51,55.51,0,0,0-6.18.34.32.32,0,0,0-.3.28.36.36,0,0,0,.17.39,63.51,63.51,0,0,1,0,110.07.36.36,0,0,0-.17.39.32.32,0,0,0,.3.28A56,56,0,1,0,93.13,34.92Z"/><path class="cls-1" d="M59.84,117.82A62.31,62.31,0,0,1,5.16,87a.93.93,0,0,0-1.73.38,56.66,56.66,0,0,0,56.88,62.05,56.66,56.66,0,0,0,55-63.74.94.94,0,0,0-1.75-.33A62.31,62.31,0,0,1,59.84,117.82Z"/><path class="cls-2" d="M59.46,150A57.11,57.11,0,0,1,2.6,93.65a58.52,58.52,0,0,1,.26-6.35,1.51,1.51,0,0,1,2.8-.62,61.9,61.9,0,0,0,54.17,30.56v0a62,62,0,0,0,53.24-32.18,1.51,1.51,0,0,1,2.82.54,58.2,58.2,0,0,1,.45,6.33c.47,31.54-24.66,57.59-56,58.06ZM4.36,87.1H4.28a.36.36,0,0,0-.28.31A56.52,56.52,0,0,0,20.66,133,55.2,55.2,0,0,0,60.3,148.83,56,56,0,0,0,115.18,92a58.71,58.71,0,0,0-.43-6.21.36.36,0,0,0-.28-.3.37.37,0,0,0-.39.18A63.43,63.43,0,0,1,91.79,109.1a62.75,62.75,0,0,1-64.14,1,63.47,63.47,0,0,1-23-22.79A.35.35,0,0,0,4.36,87.1Z"/><path class="cls-1" d="M32,58.6A62.81,62.81,0,0,1,63.46,4.07a.94.94,0,0,0-.35-1.75A56.27,56.27,0,0,0,.58,58.6a56.46,56.46,0,0,0,56.29,56.63,58.43,58.43,0,0,0,6.24-.34,1,1,0,0,0,.35-1.76A62.81,62.81,0,0,1,32,58.6Z"/><path class="cls-2" d="M56.87,115.81A57.1,57.1,0,0,1,0,58.6C0,27.06,25.51,1.39,56.87,1.39a57.87,57.87,0,0,1,6.31.35,1.5,1.5,0,0,1,1.3,1.2,1.49,1.49,0,0,1-.73,1.63,62.39,62.39,0,0,0,0,108.06,1.5,1.5,0,0,1,.73,1.64,1.48,1.48,0,0,1-1.3,1.19A55.47,55.47,0,0,1,56.87,115.81Zm0-113.26a56.05,56.05,0,0,0,0,112.1,55.38,55.38,0,0,0,6.18-.34.32.32,0,0,0,.3-.28.36.36,0,0,0-.17-.39,63.51,63.51,0,0,1,0-110.07.36.36,0,0,0,.17-.39.32.32,0,0,0-.3-.28A55.52,55.52,0,0,0,56.87,2.55Z"/></g></g></svg>