<svg xmlns="http://www.w3.org/2000/svg" viewBox="0 0 150 149.42"><defs><style>.cls-1{fill:#fff;}.cls-2{fill:#ff2d20;}</style></defs><g id="Layer_2" data-name="Layer 2"><g id="Layer_1-2" data-name="Layer 1"><path class="cls-1" d="M90.82,31.47A62.36,62.36,0,0,1,145,63a.93.93,0,0,0,1.74-.35,58.62,58.62,0,0,0,.34-6.25,56.3,56.3,0,1,0-112.59,0,58.62,58.62,0,0,0,.34,6.25A.93.93,0,0,0,36.6,63,62.36,62.36,0,0,1,90.82,31.47Z"/><path class="cls-2" d="M35.8,64.07l-.32,0a1.49,1.49,0,0,1-1.19-1.3,57,57,0,0,1-.35-6.26C33.94,25.34,59.46,0,90.82,0s56.87,25.34,56.87,56.48a57,57,0,0,1-.35,6.26,1.49,1.49,0,0,1-1.19,1.3,1.51,1.51,0,0,1-1.62-.73,62.06,62.06,0,0,0-107.42,0A1.5,1.5,0,0,1,35.8,64.07Zm55-62.92C60.09,1.15,35.1,26,35.1,56.48a54.62,54.62,0,0,0,.34,6.13.32.32,0,0,0,.27.3.34.34,0,0,0,.39-.17,63.18,63.18,0,0,1,109.43,0,.34.34,0,0,0,.39.17.32.32,0,0,0,.27-.3,54.63,54.63,0,0,0,.35-6.13C146.54,26,121.54,1.15,90.82,1.15Z"/><path class="cls-1" d="M118,90.62a62.54,62.54,0,0,1-31.48,54.32.93.93,0,0,0,.35,1.74A56.41,56.41,0,1,0,93.13,34.2a55.92,55.92,0,0,0-6.24.35.93.93,0,0,0-.35,1.74A62.55,62.55,0,0,1,118,90.62Z"/><path class="cls-2" d="M93.13,147.61a57.87,57.87,0,0,1-6.31-.35,1.52,1.52,0,0,1-.57-2.82,62,62,0,0,0,0-107.64A1.52,1.52,0,0,1,86.82,34a57.86,57.86,0,0,1,6.31-.34,57,57,0,0,1,0,114Zm0-112.83a58,58,0,0,0-6.18.34.33.33,0,0,0-.3.28.36.36,0,0,0,.17.39,63.16,63.16,0,0,1,0,109.65.36.36,0,0,0-.17.39.33.33,0,0,0,.3.28,58,58,0,0,0,6.18.34,55.84,55.84,0,0,0,0-111.67Z"/><path class="cls-1" d="M59.84,117.37A62.36,62.36,0,0,1,5.16,86.64.93.93,0,0,0,3.43,87a56.3,56.3,0,1,0,111.89-1.68.94.94,0,0,0-1.75-.33A62.34,62.34,0,0,1,59.84,117.37Z"/><path class="cls-2" d="M59.46,149.42A57,57,0,0,1,2.6,93.29,58,58,0,0,1,2.86,87a1.51,1.51,0,0,1,2.8-.62,62,62,0,0,0,54.17,30.44v0a62,62,0,0,0,53.24-32.05,1.51,1.51,0,0,1,2.82.53,58,58,0,0,1,.45,6.31,57,57,0,0,1-56,57.84ZM4.36,86.76H4.28a.35.35,0,0,0-.28.31,55.73,55.73,0,1,0,111.18,4.51,58.33,58.33,0,0,0-.43-6.18.36.36,0,0,0-.28-.3.37.37,0,0,0-.39.18A62.93,62.93,0,0,1,4.67,86.94.35.35,0,0,0,4.36,86.76Z"/><path class="cls-1" d="M32,58.38A62.56,62.56,0,0,1,63.46,4.05a.93.93,0,0,0-.35-1.74,56.41,56.41,0,1,0-6.24,112.48,55.92,55.92,0,0,0,6.24-.35.93.93,0,0,0,.35-1.74A62.53,62.53,0,0,1,32,58.38Z"/><path class="cls-2" d="M56.87,115.37a57,57,0,0,1,0-114,55.47,55.47,0,0,1,6.31.35,1.48,1.48,0,0,1,1.3,1.19,1.5,1.5,0,0,1-.73,1.63,62,62,0,0,0,0,107.64,1.52,1.52,0,0,1-.57,2.82A57.87,57.87,0,0,1,56.87,115.37Zm0-112.83a55.84,55.84,0,0,0,0,111.67,57.88,57.88,0,0,0,6.18-.34.32.32,0,0,0,.3-.28.36.36,0,0,0-.17-.39,63.17,63.17,0,0,1,0-109.65.36.36,0,0,0,.17-.39.32.32,0,0,0-.3-.27A55.52,55.52,0,0,0,56.87,2.54Z"/></g></g></svg>