<svg xmlns="http://www.w3.org/2000/svg" viewBox="0 0 512.54 510.35"><defs><style>.cls-1{fill:#fff;}.cls-2{fill:#ff2d20;}</style></defs><g id="Layer_2" data-name="Layer 2"><g id="Layer_1-2" data-name="Layer 1"><ellipse class="cls-1" cx="255.45" cy="246.91" rx="230.03" ry="222.61"/><path class="cls-1" d="M320,111A204.51,204.51,0,0,1,497.7,214.19a3.06,3.06,0,0,0,5.71-1.16,186.45,186.45,0,0,0,1.13-20.45C504.54,90.64,421.9,8,320,8S135.38,90.64,135.38,192.58A184,184,0,0,0,136.51,213a3.06,3.06,0,0,0,5.7,1.16A204.53,204.53,0,0,1,320,111Z"/><path class="cls-2" d="M500.36,223.74a11,11,0,0,1-9.6-5.58,196.65,196.65,0,0,0-341.6,0,11.06,11.06,0,0,1-20.6-4.24,192.91,192.91,0,0,1-1.18-21.34C127.38,86.39,213.77,0,320,0S512.54,86.39,512.54,192.58a195.1,195.1,0,0,1-1.18,21.34,11,11,0,0,1-8.73,9.59A11.73,11.73,0,0,1,500.36,223.74ZM320,16c-97.37,0-176.58,79.21-176.58,176.58,0,1.49,0,3,.05,4.49a212.59,212.59,0,0,1,353.05,0c0-1.5.06-3,.06-4.49C496.54,95.21,417.32,16,320,16Z"/><path class="cls-1" d="M400.43,317.53a204.79,204.79,0,0,1-103.34,178,3.07,3.07,0,0,0,1.15,5.72,187.28,187.28,0,0,0,20.48,1.13c102.07,0,184.82-82.75,184.82-184.82S420.79,132.71,318.72,132.71a184.81,184.81,0,0,0-20.48,1.14,3.06,3.06,0,0,0-1.15,5.71A204.79,204.79,0,0,1,400.43,317.53Z"/><path class="cls-2" d="M318.72,510.35a195.46,195.46,0,0,1-21.36-1.18,11.07,11.07,0,0,1-4.24-20.61,196.92,196.92,0,0,0,0-342,11.07,11.07,0,0,1,4.24-20.61,193.15,193.15,0,0,1,21.36-1.19c106.32,0,192.82,86.5,192.82,192.82S425,510.35,318.72,510.35Zm-4.52-16.06c1.51,0,3,.06,4.52.06,97.5,0,176.82-79.32,176.82-176.82S416.22,140.71,318.72,140.71c-1.5,0-3,0-4.52.06a212.86,212.86,0,0,1,0,353.52Z"/><path class="cls-1" d="M193.72,398.84A204.42,204.42,0,0,1,14.53,298.36a3.06,3.06,0,0,0-5.69,1.23A187.33,187.33,0,0,0,8,320.05C9.55,421.93,93.38,503.28,195.26,501.76S378.49,416.4,377,314.52a185.84,185.84,0,0,0-1.43-20.43,3.06,3.06,0,0,0-5.72-1.06A204.42,204.42,0,0,1,193.72,398.84Z"/><path class="cls-2" d="M192.41,509.78A192.54,192.54,0,0,1,.88,298.83a11.06,11.06,0,0,1,20.53-4.55A197.09,197.09,0,0,0,193.6,390.84l.12,8-.12-8A197.07,197.07,0,0,0,362.8,289.16a11.06,11.06,0,0,1,20.66,3.93A192.49,192.49,0,0,1,195.38,509.75ZM16,315.46c0,1.49,0,3,0,4.47A176.49,176.49,0,0,0,319.15,440.2,175.32,175.32,0,0,0,369,314.64q0-2.24-.12-4.47A212.49,212.49,0,0,1,16,315.46Z"/><path class="cls-1" d="M111.46,192.71A203.78,203.78,0,0,1,214.3,15.6a3,3,0,0,0-1.15-5.68,185.31,185.31,0,0,0-20.38-1.13C91.2,8.79,8.86,91.13,8.86,192.71A184,184,0,0,0,213.15,375.5a3.06,3.06,0,0,0,1.15-5.69A203.75,203.75,0,0,1,111.46,192.71Z"/><path class="cls-2" d="M192.77,384.62C87,384.62.86,298.53.86,192.71S87,.79,192.77.79A193.65,193.65,0,0,1,214,2a11.05,11.05,0,0,1,4.24,20.58,195.92,195.92,0,0,0,0,340.32A11.05,11.05,0,0,1,214,383.45,193.5,193.5,0,0,1,192.77,384.62Zm0-367.83c-97,0-175.91,78.92-175.91,175.92S95.77,368.62,192.77,368.62c1.46,0,2.92,0,4.38-.05a211.85,211.85,0,0,1,0-351.72Q195,16.79,192.77,16.79Z"/></g></g></svg>