<svg xmlns="http://www.w3.org/2000/svg" viewBox="0 0 55.9 55.91"><defs><style>.cls-1{fill:#5c5c5c;}</style></defs><g id="Layer_2" data-name="Layer 2"><g id="Layer_1-2" data-name="Layer 1"><path class="cls-1" d="M53.9,55.91a2.71,2.71,0,0,1-.4,0L38.12,52.7a1.89,1.89,0,0,1-1-.54l-34-34a10.64,10.64,0,1,1,15.05-15l34,34a2,2,0,0,1,.55,1l3.15,15.39a2,2,0,0,1-.55,1.81A2,2,0,0,1,53.9,55.91Zm-14.39-7,11.82,2.43L48.91,39.51,15.37,6A6.64,6.64,0,1,0,6,15.37Z"/><rect class="cls-1" x="8.13" y="14.61" width="17.29" height="4.32" transform="translate(-6.95 16.77) rotate(-45)"/></g></g></svg>