<svg xmlns="http://www.w3.org/2000/svg" xmlns:xlink="http://www.w3.org/1999/xlink" viewBox="0 0 200 200"><defs><style>.cls-1{fill:url(#linear-gradient);}.cls-2{fill:url(#linear-gradient-2);}</style><linearGradient id="linear-gradient" x1="50" y1="151.07" x2="50.52" y2="150.55" gradientTransform="matrix(189.38, 0, 0, -189.81, -9449.83, 28692.8)" gradientUnits="userSpaceOnUse"><stop offset="0" stop-color="#387eb8"/><stop offset="1" stop-color="#366994"/></linearGradient><linearGradient id="linear-gradient-2" x1="49.97" y1="151.08" x2="50.53" y2="150.54" gradientTransform="matrix(189.38, 0, 0, -189.81, -9383.83, 28757.05)" gradientUnits="userSpaceOnUse"><stop offset="0" stop-color="#ffe052"/><stop offset="1" stop-color="#ffc331"/></linearGradient></defs><g id="Layer_2" data-name="Layer 2"><g id="Layer_1-2" data-name="Layer 1"><path class="cls-1" d="M99.28,0c-50.77,0-47.6,22.13-47.6,22.13l0,22.93h48.45V52H32.49S0,48.24,0,99.74s28.36,49.67,28.36,49.67H45.28V125.52S44.37,97,73.19,97h48.05s27,.44,27-26.23V26.69S152.34,0,99.28,0ZM72.56,15.42a8.76,8.76,0,1,1-8.71,8.76,8.74,8.74,0,0,1,8.71-8.76Z"/><path class="cls-2" d="M100.72,200c50.77,0,47.6-22.13,47.6-22.13l0-22.93H99.82v-6.89h67.69S200,151.76,200,100.26s-28.36-49.67-28.36-49.67H154.72V74.48S155.63,103,126.81,103h-48s-27-.44-27,26.23v44.09s-4.1,26.69,49,26.69Zm26.72-15.42a8.76,8.76,0,1,1,8.71-8.76,8.74,8.74,0,0,1-8.71,8.76Z"/></g></g></svg>