<svg xmlns="http://www.w3.org/2000/svg" viewBox="0 0 383.23 383.29"><defs><style>.cls-1{fill:#fff;}</style></defs><g id="Layer_2" data-name="Layer 2"><g id="Rocket"><path class="cls-1" d="M193.85,0c37.89,23.45,59.66,57.7,67.64,101.12,3,16.23,2.56,32.5.15,48.78-1,6.9-2,13.82-2.65,20.76a7.35,7.35,0,0,0,1.56,4.91q18.22,21.57,36.71,42.94c5.87,6.82,8.09,14.51,5.66,23.27A23.77,23.77,0,0,1,280.07,259c-10.72.11-21.45.06-32.17.09a5.4,5.4,0,0,0-.82.28c-1,7-2,14.22-3,21.44-.84,6.05-3.22,8.12-9.43,8.15h-5.34c0,10.29-.67,20.4.2,30.37.76,8.7,8.54,16,16.81,17.67l.83-2.32c5.09-14.21,14.88-23,29.85-25.66a7.25,7.25,0,0,0,5.62-4c18.65-31.83,68.28-39.41,93.13,1.24,3.55,5.8,5,12.88,7.45,19.36v11.23c-.61,2.39-1.18,4.79-1.85,7.16-6.45,22.62-27.82,39.09-51.37,39.2-34.44.16-68.87.06-103.3,0-5.45,0-8.86-2.92-8.87-7.45s3.39-7.5,8.82-7.5c33.93,0,67.86,0,101.8,0,18.4,0,33.83-11.56,38.56-28.54a29.13,29.13,0,0,0-.88-19.43c-12.91-31.14-47.88-35-67.2-12.64-.79.92-1.45,2-2,2.72,4.05,2.88,8.05,5.37,11.63,8.37s3.91,7.75,1,10.91-7.28,3.36-11,.08c-7.22-6.37-15.39-8.27-24.28-4.56S261,336,260.45,345.6c-.28,4.94-3.32,7.67-8.27,7.68-20.28.06-37.86-17.22-38.09-37.51-.1-8.82,0-17.65,0-26.65H169.15c0,1.44,0,2.88,0,4.32-.23,9.71.43,19.55-.91,29.11-2.42,17.23-20.34,31.27-37.71,30.74-4.48-.14-7.52-2.9-7.75-7.44-.51-9.77-5-17-14-20.72s-17.07-1.72-24.26,4.68c-3.66,3.25-8.07,3.05-11-.25a7.3,7.3,0,0,1,1-10.65c3.58-3,7.59-5.55,11.73-8.53-.42-.6-1-1.65-1.8-2.58-15.49-18.87-42.92-19.2-59.26-.63C16.25,317.28,12.08,328.75,17,342c5.16,14,15.41,22.36,29.88,25.48a46.54,46.54,0,0,0,9.67.76q49.22.08,98.43,0a30.92,30.92,0,0,1,3.73.08,7.45,7.45,0,0,1,.14,14.8,18.87,18.87,0,0,1-2.61.09c-34.18,0-68.37.09-102.55,0a53.85,53.85,0,0,1-52.44-42c-4.54-20.8,3.85-37.26,19.35-50.27,25.58-21.49,63.92-14.17,80.56,14.84a5.92,5.92,0,0,0,3.42,2.76c16.35,2.76,27,11.93,31.93,27.78.07.21.32.36.49.53,8.5-1.22,16.77-10.4,17.09-19.63s.07-18.45.07-28.27c-2.15,0-4.2,0-6.26,0-5.42-.07-8-2.34-8.73-7.68-1-7.28-2-14.56-3-22.26h-18.3c-4.74,0-9.48.07-14.22,0-10-.19-17.57-4.65-21.87-13.69-4.38-9.2-3-18.06,3.53-25.83q18.33-21.74,37-43.18a7.77,7.77,0,0,0,2-6.71c-1.63-13.49-4.2-27-4.38-40.49-.65-47.55,17-87.17,53.59-117.94C178.43,7,184.06,3.69,189.36,0Zm40.07,243.86c.16-1,.27-1.59.35-2.2,4.32-32.48,8.55-65,13-97.45,3.93-28.85-1-56.07-14.54-81.76A5.32,5.32,0,0,0,228.85,60q-37.23-.21-74.46,0a5,5,0,0,0-3.7,2.11c-13.55,25.53-18.64,52.64-14.84,81.35q4.65,35.2,9.37,70.4c1.33,10,2.68,19.94,4,30Zm15.14.16c10.46,0,20.3,0,30.13,0,4,0,7.06-1.55,8.81-5.16s.91-7-1.66-10l-16.79-19.6-13.7-16C253.53,210.6,251.32,227.08,249.06,244ZM127.35,193.18c-11,12.89-21.5,24.84-31.48,37.23-4.21,5.23-.13,12.91,6.66,13.53,2.72.24,5.48.08,8.22.08h23.41C131.89,227.09,129.69,210.62,127.35,193.18Zm25.92,80.63h76.67c.67-4.88,1.31-9.65,2-14.63H151.28Zm68.31-229a117.23,117.23,0,0,0-28.35-27.25,3.78,3.78,0,0,0-3.47.22c-5.56,4.4-11.19,8.76-16.36,13.6-4.19,3.93-7.78,8.51-12.21,13.43Z"/><path class="cls-1" d="M191.52,383.22a7.46,7.46,0,1,1,7.54-7.19A7.54,7.54,0,0,1,191.52,383.22Z"/><path class="cls-1" d="M154.19,131.51a37.42,37.42,0,1,1,37.1,37.65A37.53,37.53,0,0,1,154.19,131.51Zm37.57-22.21a22.45,22.45,0,1,0,22.29,22.5A22.49,22.49,0,0,0,191.76,109.3Z"/></g></g></svg>